<svg width="40" height="51" viewBox="0 0 40 51" fill="none" xmlns="http://www.w3.org/2000/svg">
<g clip-path="url(#clip0_2_3)">
<path d="M38.9717 31.8471C38.2014 30.1038 36.8651 28.7263 35.7899 27.6194L35.534 27.3542L35.4611 27.2786C37.052 24.6179 38.1842 20.9668 38.6296 16.8716C39.0419 13.0721 38.7887 9.37993 37.9151 6.47392C36.3533 1.28368 33.3678 0.209835 31.7265 0.0308611C30.0853 -0.148113 26.938 0.260212 24.3024 4.99308C22.8242 7.64454 21.7835 11.1949 21.3686 14.9931C21.3461 15.2118 21.3235 15.4292 21.305 15.6467C21.2851 15.4306 21.2639 15.2131 21.24 14.9944C21.2267 14.8738 21.2122 14.7544 21.1976 14.6325C21.1764 14.4548 21.1538 14.2812 21.1313 14.1115C21.1088 13.9418 21.0836 13.7721 21.0584 13.6024V13.5719C21.0332 13.4062 21.0067 13.2405 20.9802 13.0761V13.0615C20.9536 12.9064 20.9258 12.7526 20.8993 12.6001L20.8794 12.4967C20.8728 12.4556 20.8648 12.4145 20.8569 12.3721L20.7535 11.8617C20.7362 11.7742 20.7177 11.688 20.6991 11.5965L20.6858 11.5342V11.5197C20.654 11.3725 20.6196 11.228 20.5864 11.0848L20.5546 10.9456C20.5228 10.813 20.4896 10.6805 20.4578 10.5598C20.4088 10.3649 20.3584 10.1727 20.3067 9.98446C20.2788 9.88503 20.251 9.78427 20.2232 9.69147L20.1701 9.50587C20.141 9.40777 20.1105 9.30966 20.0813 9.21288C20.0521 9.1161 20.015 9.00209 19.9819 8.89869C19.9487 8.79528 19.9169 8.69717 19.8824 8.59774C19.8188 8.40419 19.7499 8.21063 19.6823 8.01972V7.99321L19.4436 7.39796C19.4343 7.37277 19.4237 7.3489 19.4145 7.32637L19.3986 7.28925C18.8753 6.09076 18.0886 5.0256 17.0971 4.17292C16.1056 3.32023 14.9346 2.70195 13.6713 2.36402C12.408 2.02609 11.0847 1.97719 9.7999 2.22096C8.51508 2.46473 7.3017 2.9949 6.24994 3.77208C5.17384 4.59486 4.27777 5.62944 3.61704 6.81198C2.74977 8.29343 2.00062 9.84093 1.37655 11.4401C0.822626 12.8474 0.419556 14.3095 0.174108 15.8018C-0.63724 21.0344 1.54492 23.2736 2.91838 24.1433C3.84587 24.7201 4.91512 25.0285 6.00733 25.0342C6.05241 25.1416 6.09881 25.2476 6.1399 25.3524C6.23005 25.5539 6.30827 25.7222 6.38649 25.8826L6.48062 26.0775C6.65296 26.4275 6.84122 26.7815 7.04405 27.1302L7.05466 27.1487C7.08118 27.1951 7.10769 27.2389 7.13288 27.2813C7.02815 27.3834 6.92474 27.4868 6.82133 27.5915C3.92726 30.5161 2.48088 33.8225 2.6413 37.1368C2.77036 39.7034 3.75355 42.1532 5.43462 44.0969C7.37947 46.3334 10.2457 47.6326 12.5299 48.5063C14.9786 49.4511 17.5631 49.9963 20.1847 50.121C20.5692 50.1396 20.9536 50.1488 21.3381 50.1488C25.6732 50.1488 29.9978 49.0047 33.629 46.8796C34.4478 46.4021 35.2339 45.8707 35.9821 45.2887C38.444 43.3624 39.9832 40.0468 39.9925 36.629C39.9944 34.9808 39.6465 33.3509 38.9717 31.8471Z" fill="#210A46"/>
<path d="M17.9756 21.2303C17.9584 21.3854 17.9411 21.5405 17.9212 21.693C17.8908 21.921 17.8576 22.1464 17.8218 22.3678C17.7966 22.5149 17.7701 22.6594 17.7436 22.8026C17.6415 23.3485 17.5114 23.8888 17.3538 24.4213C17.2968 24.6096 17.2372 24.7938 17.1762 24.9728C17.1351 25.0908 17.09 25.2075 17.0436 25.3215C17.0012 25.4355 16.9548 25.5469 16.911 25.6556C16.8673 25.7643 16.8156 25.8703 16.7679 25.9737C16.744 26.0254 16.7188 26.0772 16.6936 26.1275C16.6424 26.2283 16.5906 26.3264 16.5385 26.4218C16.4881 26.5173 16.4338 26.6101 16.3794 26.7002C16.3251 26.7904 16.2681 26.8766 16.211 26.9654C16.1052 27.1269 15.9896 27.2818 15.865 27.4294C15.8014 27.501 15.7417 27.562 15.6781 27.6336C15.6158 27.6972 15.5455 27.7661 15.4859 27.8192C15.4209 27.8775 15.3533 27.9332 15.2883 27.9849C14.9145 28.2891 14.4623 28.4812 13.9838 28.539C13.8076 28.5593 13.6297 28.5593 13.4535 28.539C13.4244 28.539 13.3925 28.5311 13.3621 28.5258C13.3316 28.5205 13.3037 28.5178 13.2759 28.5112C13.265 28.5105 13.2543 28.5083 13.2441 28.5046C13.2083 28.4979 13.1711 28.49 13.1367 28.4807C13.12 28.4781 13.1036 28.4742 13.0876 28.4688C13.0598 28.4608 13.028 28.4529 12.9988 28.4423C12.9696 28.4317 12.9471 28.4277 12.9219 28.4184C12.8967 28.4091 12.8384 28.3906 12.7973 28.3733C12.7562 28.3561 12.7032 28.3362 12.6554 28.315L12.621 28.2978C12.5785 28.2792 12.5374 28.2593 12.495 28.2368C12.4891 28.2355 12.4837 28.2328 12.4791 28.2288C12.4407 28.2103 12.4009 28.189 12.3638 28.1665C12.3443 28.1575 12.3257 28.1469 12.3081 28.1347C12.2736 28.1148 12.2365 28.0936 12.202 28.0711C12.1477 28.0353 12.0907 27.9981 12.0337 27.9584C11.9767 27.9186 11.9342 27.8881 11.8852 27.8497L11.7685 27.7582C11.746 27.7396 11.7221 27.7211 11.7009 27.6999C11.6797 27.6786 11.6267 27.6375 11.5882 27.6044C11.5498 27.5713 11.4888 27.5142 11.4411 27.4718L11.3469 27.3804C11.3138 27.3485 11.2807 27.3154 11.2488 27.2809C11.217 27.2465 11.1825 27.212 11.1494 27.1762L11.0062 27.0158C10.9108 26.9071 10.8166 26.7917 10.7238 26.6711C10.6748 26.6088 10.6257 26.5451 10.5767 26.4789L10.4441 26.2972C10.399 26.2323 10.3526 26.1647 10.3115 26.0984C10.2704 26.0321 10.2214 25.9658 10.179 25.8929C10.0901 25.7603 10.0053 25.6171 9.92178 25.4726C9.76534 25.2075 9.61023 24.9171 9.4644 24.6175C9.43523 24.5605 9.40872 24.5035 9.38088 24.4452C9.30929 24.3007 9.2483 24.1535 9.17539 24.0024C8.7784 23.0985 8.4444 22.1683 8.17579 21.2183C7.74268 19.679 7.43978 18.106 7.27031 16.516C6.83414 12.5229 7.23452 8.8771 8.20893 6.44041C8.86027 5.95948 9.61159 5.63147 10.4071 5.48071C11.2026 5.32995 12.0218 5.36034 12.804 5.56959C13.5861 5.77885 14.3111 6.16162 14.925 6.68946C15.5389 7.2173 16.0261 7.87667 16.3503 8.61859C16.3528 8.62778 16.3564 8.63667 16.3609 8.6451C16.4165 8.78828 16.4709 8.93411 16.5266 9.08259C16.5982 9.27792 16.6671 9.47589 16.7334 9.67652C16.7599 9.75606 16.7864 9.83693 16.8116 9.9178C16.8368 9.99867 16.8739 10.1087 16.9018 10.2042C16.9296 10.2996 16.9521 10.3672 16.976 10.4494C16.9932 10.5078 17.0105 10.5661 17.029 10.6257C17.0516 10.7079 17.0754 10.7915 17.098 10.875C17.147 11.046 17.1908 11.2197 17.2372 11.396C17.265 11.5087 17.2942 11.6227 17.322 11.738C17.33 11.7752 17.3379 11.8136 17.3472 11.852C17.3803 11.9846 17.4122 12.1265 17.4413 12.2657C17.4413 12.2816 17.448 12.2975 17.4533 12.3134C17.4798 12.446 17.5063 12.5719 17.5355 12.7032C17.5355 12.7032 17.5355 12.7151 17.5355 12.7204C17.562 12.853 17.5885 12.9855 17.6137 13.1181C17.6137 13.1446 17.6243 13.1725 17.6283 13.199C17.6534 13.3382 17.6786 13.4787 17.7025 13.6206C17.7264 13.7624 17.7529 13.9295 17.7767 14.0846C17.776 14.093 17.776 14.1014 17.7767 14.1098C17.798 14.2583 17.8205 14.4067 17.8391 14.5565C17.8576 14.7063 17.8815 14.8721 17.9014 15.0325C17.9133 15.1412 17.9279 15.2499 17.9385 15.3599C18.1619 17.3097 18.1744 19.2779 17.9756 21.2303Z" fill="url(#paint0_radial_2_3)"/>
<path d="M35.3374 16.5147C34.5804 23.4774 31.5776 28.8612 28.6292 28.5404C25.6808 28.2196 23.9056 22.3094 24.6626 15.3533C25.4196 8.39721 28.4237 3.00678 31.3708 3.32761C34.3179 3.64843 36.0957 9.55324 35.3374 16.5147ZM17.9425 15.3533C17.9319 15.2433 17.9173 15.1346 17.9053 15.0259C17.8855 14.8655 17.8656 14.7077 17.843 14.5499C17.8205 14.3922 17.8019 14.2516 17.7807 14.1032C17.78 14.0948 17.78 14.0864 17.7807 14.078C17.7569 13.9229 17.7317 13.7677 17.7065 13.614C17.6813 13.4602 17.6574 13.3316 17.6322 13.1924C17.6322 13.1659 17.623 13.138 17.6177 13.1115C17.5925 12.9789 17.566 12.8464 17.5394 12.7138C17.5394 12.7138 17.5394 12.7019 17.5394 12.6966C17.5103 12.564 17.4838 12.4314 17.4573 12.3068C17.4573 12.2909 17.4573 12.275 17.4453 12.2591C17.4162 12.1265 17.3843 11.982 17.3512 11.8454C17.3419 11.807 17.334 11.7685 17.326 11.7314C17.2982 11.6161 17.269 11.5021 17.2412 11.3894C17.1948 11.2131 17.151 11.0394 17.102 10.8684C17.0794 10.7848 17.0556 10.7013 17.033 10.6191C17.0145 10.5595 16.9972 10.5011 16.98 10.4428C16.9561 10.3606 16.9309 10.2784 16.9057 10.1976C16.8806 10.1167 16.8461 10.0053 16.8156 9.91119C16.7851 9.81707 16.7639 9.74945 16.7374 9.66991C16.6711 9.4684 16.6022 9.27042 16.5306 9.07598C16.4749 8.9275 16.4205 8.78167 16.3648 8.63849C16.3646 8.63584 16.3646 8.63318 16.3648 8.63054C16.3616 8.6246 16.359 8.61839 16.3569 8.61198C15.9712 7.72712 15.3548 6.96216 14.5722 6.39712C13.7897 5.83207 12.8696 5.48771 11.9083 5.40004C10.9471 5.31236 9.97992 5.48461 9.10802 5.89876C8.23613 6.31291 7.49154 6.95374 6.95215 7.75423C6.88453 7.86028 6.81957 7.96767 6.75329 8.07373C6.75271 8.07635 6.75271 8.07906 6.75329 8.08168C3.17381 13.895 2.2458 19.7826 4.70768 21.339C5.60255 21.9051 6.8209 21.8229 8.18906 21.2144C8.84598 20.9134 9.47165 20.5483 10.057 20.1246C11.6068 19.0203 13.2388 17.3857 14.7408 15.3706L14.7236 15.3971C14.7886 15.3088 14.8735 15.2372 14.9714 15.1879C15.0693 15.1386 15.1774 15.1131 15.287 15.1134C15.4549 15.1136 15.6172 15.1739 15.7446 15.2833C15.872 15.3927 15.9561 15.544 15.9817 15.7099C16.048 16.3476 16.0838 16.972 16.0917 17.5739C16.1501 21.3735 15.1306 24.3126 13.5503 24.4836C12.8384 24.5619 12.1172 24.066 11.4689 23.1579C11.3334 22.9662 11.1314 22.8319 10.9022 22.7812C10.673 22.7304 10.4331 22.7669 10.2294 22.8835C9.96421 23.0373 9.69906 23.1738 9.44717 23.2958C9.31937 23.3537 9.21972 23.4598 9.17002 23.591C9.12032 23.7222 9.12464 23.8678 9.18203 23.9958C9.24964 24.1469 9.3146 24.2941 9.38752 24.4386C9.41536 24.4969 9.44187 24.5539 9.47104 24.6109C9.61687 24.9105 9.77198 25.1956 9.92842 25.466C10.0119 25.6105 10.0968 25.751 10.1856 25.8863C10.228 25.9565 10.2744 26.0188 10.3182 26.0918C10.3619 26.1647 10.4097 26.2243 10.4508 26.2906L10.5833 26.4722C10.6324 26.5385 10.6814 26.6048 10.7305 26.6645C10.8233 26.7851 10.9174 26.8991 11.0129 27.0092L11.156 27.1696C11.1892 27.2054 11.2223 27.2412 11.2555 27.2743C11.2886 27.3075 11.3204 27.3419 11.3536 27.3737L11.4477 27.4652C11.4954 27.5116 11.5445 27.558 11.5949 27.5978C11.6452 27.6376 11.6691 27.6628 11.7076 27.6932C11.746 27.7237 11.7526 27.733 11.7752 27.7516L11.8918 27.8431C11.9409 27.8815 11.9913 27.9173 12.0403 27.9518C12.0894 27.9862 12.1543 28.0287 12.2087 28.0644C12.2431 28.087 12.2803 28.1082 12.3147 28.1281C12.3324 28.1402 12.351 28.1509 12.3704 28.1599C12.4075 28.1824 12.4473 28.2036 12.4858 28.2222C12.4903 28.2262 12.4958 28.2289 12.5017 28.2302C12.5441 28.2527 12.5852 28.2726 12.6276 28.2911L12.6621 28.3084C12.7098 28.3296 12.7562 28.3495 12.8039 28.3667C12.8517 28.384 12.8861 28.3985 12.9285 28.4118C12.971 28.425 12.9803 28.429 13.0054 28.4357C13.0306 28.4423 13.0664 28.4542 13.0943 28.4622C13.1102 28.4675 13.1267 28.4715 13.1433 28.4741C13.1778 28.4834 13.2149 28.4913 13.2507 28.498C13.2609 28.5017 13.2716 28.5039 13.2825 28.5046C13.3104 28.5112 13.3409 28.5152 13.3687 28.5192C13.3965 28.5232 13.431 28.5298 13.4602 28.5324C13.6363 28.5527 13.8143 28.5527 13.9905 28.5324C14.4689 28.4746 14.9212 28.2825 15.295 27.9783C15.3626 27.9266 15.4276 27.8722 15.4925 27.8126C15.5575 27.7529 15.6251 27.6906 15.6847 27.627C15.7484 27.562 15.8173 27.4944 15.8717 27.4228C15.9987 27.2741 16.1164 27.1178 16.2243 26.9548C16.2813 26.8713 16.337 26.7851 16.3927 26.6897C16.4484 26.5942 16.5014 26.5067 16.5518 26.4113C16.6022 26.3158 16.6578 26.2177 16.7069 26.1169C16.7321 26.0666 16.7573 26.0149 16.7811 25.9632C16.8289 25.8598 16.8766 25.7537 16.9243 25.645C16.9694 25.5363 17.0158 25.4249 17.0569 25.3109C17.1033 25.1969 17.1457 25.0815 17.1895 24.9622C17.2504 24.7846 17.3101 24.6003 17.3671 24.4107C17.5247 23.8782 17.6548 23.3379 17.7569 22.792C17.7834 22.6488 17.8112 22.5043 17.8351 22.3572C17.8709 22.1358 17.904 21.9104 17.9345 21.6824C17.9544 21.5299 17.9716 21.3761 17.9889 21.2197C18.1842 19.2683 18.1687 17.3014 17.9425 15.3533Z" fill="url(#paint1_radial_2_3)"/>
<path d="M32.369 19.9096C32.8188 15.8612 31.9406 12.4413 30.4076 12.2709C28.8745 12.1006 27.267 15.2443 26.8172 19.2927C26.3674 23.341 27.2456 26.761 28.7786 26.9313C30.3117 27.1016 31.9192 23.9579 32.369 19.9096Z" fill="url(#paint2_radial_2_3)"/>
<path d="M31.9555 44.0209C28.486 46.0506 24.3073 46.9985 20.3421 46.8116C18.0742 46.7017 15.8386 46.2296 13.72 45.413C11.7314 44.6467 9.36898 43.5728 7.94647 41.9289C6.75087 40.5463 6.05102 38.8041 5.95787 36.9786C5.82529 34.2132 7.30084 31.8215 9.18338 29.9204C11.0659 28.0193 13.4257 26.0334 15.8743 24.9012C17.4443 24.1747 19.1435 23.7691 20.8724 23.7081C24.0104 23.6007 27.0145 24.7925 29.5612 26.561C30.8563 27.4715 32.0587 28.507 33.1513 29.6526C34.1443 30.6841 35.36 31.8706 35.942 33.1857C36.4293 34.264 36.6824 35.4334 36.6844 36.6167C36.6751 38.8161 35.7086 41.2926 33.9428 42.6727C33.3108 43.1655 32.647 43.6159 31.9555 44.0209Z" fill="url(#paint3_radial_2_3)"/>
<path d="M21.3178 42.9829C22.5918 42.9829 23.6245 42.4048 23.6245 41.6916C23.6245 40.9785 22.5918 40.4004 21.3178 40.4004C20.0438 40.4004 19.011 40.9785 19.011 41.6916C19.011 42.4048 20.0438 42.9829 21.3178 42.9829Z" fill="url(#paint4_radial_2_3)"/>
<path d="M17.6561 35.7921C17.6561 37.2054 16.8235 38.3521 15.8001 38.3521C14.7766 38.3521 13.944 37.2054 13.944 35.7921C13.944 34.3789 14.7753 33.2308 15.8001 33.2308C16.8248 33.2308 17.6561 34.3762 17.6561 35.7921ZM26.8368 33.2308C25.8107 33.2308 24.9808 34.3776 24.9808 35.7921C24.9808 37.2067 25.808 38.3534 26.8368 38.3534C27.8655 38.3534 28.6928 37.2067 28.6928 35.7934C28.6928 34.3802 27.8629 33.2308 26.8368 33.2308Z" fill="url(#paint5_radial_2_3)"/>
</g>
<defs>
<radialGradient id="paint0_radial_2_3" cx="0" cy="0" r="1" gradientUnits="userSpaceOnUse" gradientTransform="translate(12.6051 16.9667) scale(9.07331 9.07331)">
<stop stop-color="#FA88B9"/>
<stop offset="1" stop-color="#FA6A9B"/>
</radialGradient>
<radialGradient id="paint1_radial_2_3" cx="0" cy="0" r="1" gradientUnits="userSpaceOnUse" gradientTransform="translate(23.4204 3.5848) scale(38.1228 38.1228)">
<stop stop-color="white"/>
<stop offset="1" stop-color="#C8DAFF"/>
</radialGradient>
<radialGradient id="paint2_radial_2_3" cx="0" cy="0" r="1" gradientUnits="userSpaceOnUse" gradientTransform="translate(6433.79 1415.78) rotate(0.130189) scale(1334.48 505.36)">
<stop stop-color="#FA88B9"/>
<stop offset="1" stop-color="#FA6A9B"/>
</radialGradient>
<radialGradient id="paint3_radial_2_3" cx="0" cy="0" r="1" gradientUnits="userSpaceOnUse" gradientTransform="translate(19.5002 38.4502) scale(19.4379 19.4379)">
<stop stop-color="white"/>
<stop offset="1" stop-color="#D6E8FF"/>
</radialGradient>
<radialGradient id="paint4_radial_2_3" cx="0" cy="0" r="1" gradientUnits="userSpaceOnUse" gradientTransform="translate(777.709 824.301) scale(112.155 62.7813)">
<stop stop-color="#FA88B9"/>
<stop offset="1" stop-color="#FA6A9B"/>
</radialGradient>
<radialGradient id="paint5_radial_2_3" cx="0" cy="0" r="1" gradientUnits="userSpaceOnUse" gradientTransform="translate(25.6516 31.7712) scale(11.0115 11.0115)">
<stop stop-color="#210A46"/>
<stop offset="1" stop-color="#2B1450"/>
</radialGradient>
<clipPath id="clip0_2_3">
<rect width="40" height="50.1485" fill="white"/>
</clipPath>
</defs>
</svg>
